<?xml version="1.0" encoding="utf-8"?>
<!-- Generator: Adobe Illustrator 23.0.4, SVG Export Plug-In . SVG Version: 6.00 Build 0)  -->
<svg version="1.0" id="Dashboard" xmlns="http://www.w3.org/2000/svg" xmlns:xlink="http://www.w3.org/1999/xlink" x="0px" y="0px"
	 viewBox="0 0 1680 980" style="enable-background:new 0 0 1680 980;" xml:space="preserve">
<style type="text/css">
	.st0{fill:#EDEBEC;}
	.st1{fill:#9FD6E5;}
	.st2{fill:#2B2B2B;}
	.st3{fill:#76CFE3;}
	.st4{fill:#FFFFFF;}
	.st5{fill:#F8F8F8;}
	.st6{fill:#D7D7D7;}
	.st7{fill:#BBBBBA;}
	.st8{fill:#EEEDED;}
	.st9{fill:none;stroke:#676767;stroke-width:1.9435;stroke-miterlimit:10;}
	.st10{fill:#717171;}
	.st11{fill:#959595;}
	.st12{fill:#3B3A3A;}
	.st13{fill:#0083AC;}
	.st14{fill:#E0E0E0;}
	.st15{fill:none;stroke:#F2F2F2;stroke-width:3;stroke-miterlimit:10;}
	.st16{fill:#3A3A3A;}
	.st17{fill:none;stroke:#3A3A3A;stroke-miterlimit:10;}
	.st18{fill:#F2F2F2;}
	.st19{fill:none;stroke:#D7D7D7;stroke-miterlimit:10;}
	.st20{fill:#CBEAF1;}
	.st21{fill:#757575;}
	.st22{fill:#969696;}
	.st23{fill:none;stroke:#D7D7D7;stroke-width:0.9175;stroke-miterlimit:10;}
	.st24{fill:none;stroke:#D7D7D7;stroke-width:0.8864;stroke-miterlimit:10;}
	.st25{fill:#767676;}
	.st26{fill:none;stroke:#717171;stroke-width:3;stroke-miterlimit:10;}
	.st27{fill:none;stroke:#FFFFFF;stroke-miterlimit:10;}
	.st28{fill:#008EAF;}
	.st29{fill:none;stroke:#707070;stroke-width:1.75;stroke-miterlimit:10;}
	.st30{fill:#F9A35C;}
	.st31{fill:#643A5F;}
	.st32{fill:#47B383;}
	.st33{fill:#EE7B5F;}
	.st34{fill:#FFC910;}
	.st35{fill:#4BBAB4;}
	.st36{fill:#50305C;}
	.st37{fill:#A9A9A9;}
	.st38{fill:#EEEEEE;}
	.st39{fill:#E65038;}
	.st40{fill:#525252;}
	.st41{fill:#64C8C3;}
	.st42{fill:#A3487A;}
	.st43{fill:#EDA911;}
	.st44{fill:#776DB6;}
	.st45{fill:#E37331;}
</style>
<symbol  id="bookmarks" viewBox="-9 -12 18 24">
	<g>
		<path class="st0" d="M1.7,11c-0.3,0.6-1,1-1.7,1s-1.4-0.4-1.7-1H-5V9H5v2H1.7z"/>
	</g>
	<g>
		<path class="st0" d="M8,10H6V8H-6v2h-2c-0.6,0-1-0.4-1-1v-20c0-0.6,0.4-1,1-1H8c0.6,0,1,0.4,1,1V9C9,9.6,8.6,10,8,10z M5.7-1.2
			L3.3-3C3.1-3.2,3-3.5,3-3.8l0.9-2.9c0.2-0.6-0.5-1.2-1.1-0.8L0.3-5.7c-0.2,0.2-0.6,0.2-0.8,0L-3-7.5c-0.5-0.4-1.3,0.1-1.1,0.8
			l1.1,3c0.1,0.3,0,0.6-0.3,0.8l-2.4,1.7C-6.3-0.9-6,0-5.3,0h3.1c0.3,0,0.6,0.2,0.7,0.5l1,3c0.2,0.6,1.1,0.6,1.3,0l1-3
			C1.9,0.2,2.2,0,2.5,0h3.1C6,0,6.3-0.9,5.7-1.2z"/>
	</g>
</symbol>
<symbol  id="callercard" viewBox="-11 -10.5 22 21">
	<g>
		<g>
			<path class="st0" d="M5.8,1.4l-1.9-1c-0.5-0.3-1.2-0.3-1.7,0l-1.9,1c-0.7,0.3-1.1,1-1.1,1.7v3.6c0,2.1,1.7,3.8,3.9,3.8l0,0
				C5.2,10.5,7,8.8,7,6.7V3.1C6.9,2.4,6.5,1.7,5.8,1.4z"/>
		</g>
		<g>
			<path class="st0" d="M5.5,0.4c0-0.1,0-0.2,0-0.4c0-1.1-1.1-2-2.5-2S0.5-1.1,0.5,0c0,0.1,0,0.2,0,0.4c-2.7-0.3-4.7-1.2-5.3-2.2
				c0,0,0,0,0-0.1c0.8-1.2,1.9-2.2,3.3-3C-0.6-4,0.1-3.3,1.1-3.3c0.8,0,1.4-0.4,2.5-0.9c0.4-0.2,0.7-0.4,1-0.5
				c0.3-0.2,0.6-0.4,0.8-0.6C8.7-5,11-3.8,11-2.5C11-1.1,8.7,0,5.5,0.4z"/>
		</g>
		<g>
			<path class="st0" d="M4.4-9c-1-1.1-2.4-1.8-3.9-1.4c-6,1.5-9.8,5.3-11.4,11.2C-11,1-11,1.3-11,1.4c0,2,1.1,3.6,2.6,4
				c0.7,0.2,1.2,0,1.6-0.7C-6.4,4-6,3.2-5.5,2.4C-5,1.8-5.1,1.3-5.7,0.8C-7.4-0.8-7.4-0.8-6-2.7c1.1-1.5,2.4-2.6,4-3.5
				C-1.4-6.5-1-6.5-0.6-6C1-4.5,1-4.5,3-5.6c0.3-0.2,0.6-0.3,0.9-0.5C5.1-6.7,5.4-8,4.4-9z"/>
		</g>
	</g>
</symbol>
<symbol  id="firstline" viewBox="-8 -11 16 22">
	<g>
		<path class="st1" d="M6,11H3c0-1.7-1.3-3-3-3s-3,1.3-3,3h-3c-1.1,0-2-0.9-2-2V-9c0-1.1,0.9-2,2-2H6c1.1,0,2,0.9,2,2V9
			C8,10.1,7.1,11,6,11z M2-6h-2.5l0.1,5.3c0,0.6,0.3,1.2,0.3,1.8c-0.2-0.2-0.5-0.4-0.7-0.6l-1.2-1l-1.4,1.7L0,4h2V-6z"/>
	</g>
</symbol>
<symbol  id="home" viewBox="-9 -8.5 18 17">
	<polygon class="st2" points="0,8.5 -9,-0.5 -6,-0.5 -6,-8.5 -1,-8.5 -1,-3.5 1,-3.5 1,-8.5 6,-8.5 6,-0.5 9,-0.5 	"/>
</symbol>
<symbol  id="search" viewBox="-10.8 -10.8 21.6 21.6">
	<g>
		<path class="st0" d="M10.5-7.9l-5,5c1.1,1.7,1.7,3.8,1.3,6.1C6.3,7,3.3,10.1-0.5,10.7c-6,1-11.2-4.2-10.2-10.2
			c0.6-3.8,3.7-6.8,7.5-7.3c2.3-0.3,4.4,0.2,6.1,1.3l5-5c0.4-0.4,1-0.4,1.4,0l1.2,1.2C10.9-8.9,10.9-8.3,10.5-7.9z M-7.8,1.9
			c0,3.3,2.6,5.9,5.9,5.9S4,5.1,4,1.9C4-1.4,1.3-4-1.9-4S-7.8-1.3-7.8,1.9z"/>
	</g>
</symbol>
<symbol  id="secondline" viewBox="-8 -11 16 22">
	<g>
		<path class="st1" d="M6,11H3c0-1.7-1.3-3-3-3s-3,1.3-3,3h-3c-1.1,0-2-0.9-2-2V-9c0-1.1,0.9-2,2-2H6c1.1,0,2,0.9,2,2V9
			C8,10.1,7.1,11,6,11z M3.7-6h-7.3v1.8l2.4,2.5C-0.5-1,0-0.5,0.2-0.2s0.4,0.5,0.4,0.7c0.1,0.2,0.1,0.4,0.1,0.6
			c0,0.3-0.1,0.5-0.3,0.6S0,1.9-0.3,1.9s-0.6-0.1-1-0.3C-1.6,1.4-2,1.2-2.4,0.8l-1.3,1.7c0.5,0.5,0.9,0.8,1.3,1S-1.7,3.8-1.3,4
			c0.4,0.1,0.9,0.2,1.4,0.2c0.6,0,1.2-0.1,1.7-0.3s0.9-0.6,1.2-1S3.4,2,3.4,1.5c0-0.4,0-0.8-0.1-1.1S3-0.3,2.8-0.6S2.3-1.3,2-1.6
			c-0.3-0.4-1.1-1-2.2-2v-0.1h3.8V-6H3.7z"/>
	</g>
</symbol>
<rect x="80" y="80" class="st3" width="1600" height="900"/>
<g id="New_Symbol_2_">
</g>
<rect class="st4" width="1600" height="900"/>
<g>
	<rect x="85.5" y="152.5" class="st5" width="424" height="714"/>
	<path class="st6" d="M509,153v713H86V153H509 M510,152H85v715h425V152L510,152z"/>
</g>
<rect x="103.1" class="st7" width="1496.9" height="54.8"/>
<g>
	<rect x="52.3" y="0.5" class="st8" width="50.8" height="53.8"/>
	<path class="st6" d="M102.7,1v52.8H52.8V1H102.7 M103.7,0H51.8v54.8h51.8L103.7,0L103.7,0z"/>
</g>
<use xlink:href="#home"  width="18" height="17" x="-9" y="-8.5" transform="matrix(1.0799 0 0 -1.1421 77.7532 27.9811)" style="overflow:visible;"/>
<g>
	<rect x="103.2" y="0.5" class="st4" width="212.8" height="53.8"/>
	<path class="st6" d="M315.5,1v52.8H103.7V1H315.5 M316.5,0H102.7v54.8h213.8V0L316.5,0z"/>
</g>
<g>
	<line class="st9" x1="299.7" y1="16" x2="306.2" y2="9.1"/>
	<line class="st9" x1="306.2" y1="16" x2="299.7" y2="9.1"/>
</g>
<g>
	<path class="st10" d="M1512,23.2v-4.1h-5.2c-0.6,0-1,0.4-1,1v15.5c0,0.6,0.4,1,1,1h20.6c0.6,0,1-0.4,1-1V23.2H1512z M1516.1,34.5
		h-8.2v-5.2h8.2V34.5z M1526.4,34.5h-8.2v-5.2h8.2V34.5z M1526.4,27.3h-18.6v-2.1h18.6V27.3z"/>
	<rect x="1514.1" y="19.1" class="st10" width="6.2" height="3.1"/>
	<path class="st10" d="M1528.5,22.2h-6.2v-3.1h5.2c0.6,0,1,0.4,1,1V22.2z"/>
</g>
<g>
	<path class="st10" d="M1559.1,27.9l-2.3,1.1c-0.6,0.3-1.4,0.3-2,0l-2.3-1.1c-0.8-0.4-1.3-1.1-1.3-2v-4.1c0-2.5,2-4.4,4.5-4.4l0,0
		c2.5,0,4.5,2,4.5,4.4V26C1560.4,26.8,1559.9,27.5,1559.1,27.9z"/>
	<path class="st10" d="M1568.9,32.5l-0.8-1.8l-1.5,0.6c-0.2-0.3-0.6-0.8-1.1-1.1l0.6-1.5l-1.7-0.6l-0.6,1.5c-0.6-0.2-1.1-0.2-1.7,0
		l-0.6-1.5l-1.8,0.6l0.6,1.5c-0.5,0.3-0.9,0.8-1.2,1.2l-1.5-0.6l-0.5,1.7l1.5,0.6c-0.2,0.6-0.2,1.1,0,1.7l-1.5,0.6l0.8,1.8l1.5-0.6
		c0.3,0.5,0.8,0.9,1.2,1.2l-0.6,1.5l1.8,0.8l0.6-1.5c0.6,0.2,1.1,0.2,1.7,0l0.6,1.5l1.8-0.8l-0.6-1.5c0.5-0.3,0.9-0.8,1.2-1.2
		l1.5,0.6l0.8-1.8l-1.5-0.6c0.2-0.6,0.2-1.1,0-1.7L1568.9,32.5z M1564.3,36.1c-1.2,0.5-2.4,0-3-1.2c-0.5-1.2,0-2.4,1.2-3
		c1.2-0.5,2.4,0,3,1.2C1565.9,34.3,1565.3,35.6,1564.3,36.1z"/>
	<path class="st10" d="M1555.9,33.9c0-0.9,0.2-1.7,0.5-2.5c-0.2,0-0.3,0-0.5,0c-1.2,0-2.2-0.6-2.3-1.9c-3.9,0.3-6.8,1.5-6.8,2.9
		c0,1.7,4.1,3,9,3c0.1,0,0.1,0,0.2,0C1555.9,35,1555.9,34.4,1555.9,33.9z"/>
</g>
<rect x="87" y="91" class="st11" width="128" height="17"/>
<rect x="232" y="91" class="st11" width="215.4" height="17"/>
<rect x="141.4" y="15.6" class="st11" width="102" height="8.5"/>
<rect x="141.4" y="29.6" class="st11" width="146.6" height="8.5"/>
<path class="st12" d="M51.9,0v900H0V0H51.9z"/>
<rect class="st13" width="51.8" height="54.8"/>
<g>
	<rect x="18.4" y="34.3" class="st4" width="15.1" height="2.3"/>
	<rect x="18.4" y="27.4" class="st4" width="15.1" height="2.3"/>
	<rect x="18.4" y="20.6" class="st4" width="15.1" height="2.3"/>
</g>
<use xlink:href="#firstline"  width="16" height="22" x="-8" y="-11" transform="matrix(1.125 0 0 -1.1898 25.9177 209.6901)" style="overflow:visible;"/>
<use xlink:href="#secondline"  width="16" height="22" x="-8" y="-11" transform="matrix(1.125 0 0 -1.1898 25.9177 254.5102)" style="overflow:visible;"/>
<use xlink:href="#search"  width="21.6" height="21.6" x="-10.8" y="-10.8" transform="matrix(0.9239 0 0 -0.9771 25.9177 82.23)" style="overflow:visible;"/>
<use xlink:href="#bookmarks"  width="18" height="24" x="-9" y="-12" transform="matrix(0.9444 0 0 -0.9988 25.9177 124.0501)" style="overflow:visible;"/>
<use xlink:href="#callercard"  width="22" height="21" x="-11" y="-10.5" transform="matrix(1.0898 0 0 -1.1525 25.9177 168.8701)" style="overflow:visible;"/>
<g>
	<g>
		<g>
			<path class="st14" d="M35,865c0-5-4.1-9-9-9s-9,4-9,9s4,9,9,9S35,870,35,865z M18.1,865c0-4.4,3.5-7.9,7.9-7.9s7.9,3.5,7.9,7.9
				s-3.5,7.9-7.9,7.9S18.1,869.4,18.1,865z"/>
		</g>
	</g>
	<g>
		<line class="st15" x1="21.5" y1="869.5" x2="29.4" y2="861.6"/>
		<rect x="20.1" y="866.1" class="st16" width="1.4" height="3.4"/>
		<rect x="21.5" y="869.5" class="st16" width="3.4" height="1.6"/>
		<line class="st17" x1="22.6" y1="866.1" x2="24.9" y2="868.4"/>
	</g>
</g>
<circle class="st16" cx="26" cy="845" r="7.7"/>
<g>
	<polygon class="st18" points="23.2,819.1 27.2,823 23.2,826.9 22.1,825.8 24.8,823 22.1,820.2 	"/>
	<polygon class="st18" points="27.7,819.1 31.7,823 27.7,826.9 26.6,825.8 29.3,823 26.6,820.2 	"/>
	<g>
		<g>
			<path class="st14" d="M17,823c0,5,4,9,9,9s9-4,9-9s-4.1-9-9-9S17,818,17,823z M33.9,823c0,4.4-3.5,7.9-7.9,7.9s-7.9-3.5-7.9-7.9
				s3.5-7.9,7.9-7.9S33.9,818.6,33.9,823z"/>
		</g>
	</g>
</g>
<line class="st19" x1="51.9" y1="789" x2="0" y2="789"/>
<rect x="109" y="171" class="st11" width="165" height="12"/>
<rect x="145" y="230" class="st11" width="146" height="11.3"/>
<rect x="86" y="255" class="st20" width="423" height="42"/>
<rect x="145" y="270" class="st21" width="172" height="11.3"/>
<rect x="145" y="310" class="st11" width="62" height="11.3"/>
<rect x="145" y="350" class="st11" width="192" height="11.3"/>
<rect x="145" y="390" class="st11" width="144" height="11.3"/>
<rect x="145" y="430" class="st11" width="168" height="11.3"/>
<rect x="145" y="470" class="st11" width="84" height="11.3"/>
<rect x="145" y="510" class="st11" width="96" height="11.3"/>
<line class="st19" x1="84" y1="201" x2="508" y2="200"/>
<g>
	<circle class="st4" cx="476" cy="177" r="7.7"/>
	<polygon class="st10" points="478.5,180.5 474.9,177 478.5,173.5 479.5,174.5 477.1,177 479.5,179.5 	"/>
	<polygon class="st10" points="474.5,180.5 470.9,177 474.5,173.5 475.5,174.5 473.1,177 475.5,179.5 	"/>
	<g>
		<g>
			<path class="st22" d="M484,177c0-4.4-3.6-8-8-8s-8,3.6-8,8s3.6,8,8,8S484,181.4,484,177z M469,177c0-3.9,3.1-7,7-7s7,3.1,7,7
				s-3.1,7-7,7S469,180.9,469,177z"/>
		</g>
	</g>
</g>
<g>
	<rect x="1423" y="93.4" class="st11" width="70.9" height="11.3"/>
	<rect x="1267" y="93.4" class="st11" width="121.9" height="11.3"/>
	<path class="st23" d="M1561,121.7h-306.5c-2.2,0-4-1.8-4-4V82c0-2.2,1.8-4,4-4H1561c2.2,0,4,1.8,4,4v35.7
		C1565,119.9,1563.2,121.7,1561,121.7z"/>
	<line class="st24" x1="1406.1" y1="78" x2="1406.1" y2="121.7"/>
	<line class="st24" x1="1511.8" y1="78" x2="1511.8" y2="121.7"/>
	<g id="arrow_dropdown_7_">
		<path class="st25" d="M1543.9,100c-0.2,2-0.7,2.5-1.6,3.3c-2.2,2.2-5.7,2.3-7.9,0.1c-2.2-2.2-2.2-5.7,0-7.9c2-2,5-1.9,7.2-0.4
			l-2.2,2.9h6.6v-7l-2.4,2c-3.3-2.6-8.1-2.4-11.1,0.7c-3.3,3.3-3.3,8.6,0,11.9s8.6,3.1,11.9-0.2c1.4-1.4,2.2-3.3,2.4-5.3L1543.9,100
			L1543.9,100z"/>
	</g>
</g>
<g>
	<g>
		<rect x="545.5" y="152.5" class="st4" width="492" height="319"/>
		<path class="st6" d="M1037,153v318H546V153H1037 M1038,152H545v320h493V152L1038,152z"/>
	</g>
	<line class="st19" x1="545" y1="201" x2="1037" y2="200"/>
	<g>
		<g>
			<g>
				<path class="st22" d="M988,177c0-4.9-4-9-9-9s-9,4.1-9,9s4,9,9,9S988,181.9,988,177z M971.1,177c0-4.4,3.5-7.9,7.9-7.9
					s7.9,3.5,7.9,7.9s-3.5,7.9-7.9,7.9S971.1,181.4,971.1,177z"/>
			</g>
		</g>
		<g>
			<line class="st26" x1="974.5" y1="181.5" x2="982.4" y2="173.6"/>
			<rect x="973.2" y="178.1" class="st4" width="1.4" height="3.4"/>
			<rect x="974.5" y="181.5" class="st4" width="3.4" height="1.6"/>
			<line class="st27" x1="975.6" y1="178.1" x2="977.9" y2="180.4"/>
		</g>
	</g>
	<rect x="570" y="172" class="st11" width="99" height="11.3"/>
	<rect x="570" y="221" class="st28" width="146" height="11"/>
	<g id="arrow_dropdown_2_">
		<g>
			<g>
				<path class="st4" d="M994.6,177c0-4.7,3.7-8.4,8.4-8.4s8.4,3.7,8.4,8.4s-3.7,8.4-8.4,8.4S994.6,181.7,994.6,177z"/>
			</g>
		</g>
		<g>
			<g>
				<path class="st11" d="M1012,177c0-4.9-4-9-9-9s-9,4.1-9,9s4,9,9,9S1012,181.9,1012,177z M995.1,177c0-4.4,3.5-7.9,7.9-7.9
					s7.9,3.5,7.9,7.9s-3.5,7.9-7.9,7.9S995.1,181.4,995.1,177z"/>
			</g>
		</g>
		<g>
			<line class="st29" x1="999.6" y1="180.4" x2="1006.4" y2="173.6"/>
			<line class="st29" x1="1006.4" y1="180.4" x2="999.6" y2="173.6"/>
		</g>
	</g>
	<g id="arrow_dropdown_3_">
	</g>
	<g>
		<g>
			<g>
				<g>
					<path class="st30" d="M662.4,351.1l-17.3-81.5c6-1.3,11.2-1.8,17.3-1.8V351.1z"/>
				</g>
			</g>
			<g>
				<g>
					<path class="st31" d="M662.4,351.1l-44.2-70.7c8.7-5.4,16.8-8.7,26.8-10.8L662.4,351.1z"/>
				</g>
			</g>
			<g>
				<g>
					<path class="st32" d="M662.4,351.1l-65.7-51.3c6.3-8.1,12.8-14,21.5-19.4L662.4,351.1z"/>
				</g>
			</g>
			<g>
				<g>
					<path class="st28" d="M662.4,351.1l-83.3,2.9c-0.7-20.4,5-38.1,17.6-54.2L662.4,351.1z"/>
				</g>
			</g>
			<g>
				<g>
					<path class="st33" d="M662.4,351.1L608.8,415c-18.8-15.8-28.8-36.4-29.7-61L662.4,351.1z"/>
				</g>
			</g>
			<g>
				<g>
					<path class="st34" d="M662.4,351.1l28.5,78.3c-28.8,10.5-58.6,5.2-82.1-14.5L662.4,351.1z"/>
				</g>
			</g>
			<g>
				<g>
					<path class="st35" d="M662.4,351.1v-83.4c46,0,83.4,37.3,83.4,83.4c0,35.8-21.2,66.1-54.9,78.3L662.4,351.1z"/>
				</g>
			</g>
		</g>
	</g>
	<circle class="st35" cx="793" cy="303" r="8"/>
	<circle class="st34" cx="793" cy="329" r="8"/>
	<circle class="st33" cx="793" cy="355" r="8"/>
	<circle class="st28" cx="793" cy="381" r="8"/>
	<circle class="st32" cx="906" cy="303" r="8"/>
	<circle class="st36" cx="906" cy="329" r="8"/>
	<circle class="st30" cx="906" cy="355" r="8"/>
	<rect x="807" y="298" class="st37" width="70" height="9"/>
	<rect x="807" y="324" class="st37" width="54" height="9"/>
	<rect x="807" y="351" class="st37" width="70" height="9"/>
	<rect x="807" y="377" class="st37" width="54" height="9"/>
	<rect x="921" y="298" class="st37" width="54" height="9"/>
	<rect x="921" y="325" class="st37" width="70" height="9"/>
	<rect x="921" y="351" class="st37" width="54" height="9"/>
</g>
<g>
	<g>
		<rect x="1071.5" y="155.5" class="st4" width="492" height="274"/>
		<path class="st6" d="M1563,156v273h-491V156H1563 M1564,155h-493v275h493V155L1564,155z"/>
	</g>
	<line class="st19" x1="1072" y1="201" x2="1564" y2="200"/>
	<g>
		<g>
			<g>
				<path class="st22" d="M1516,177c0-4.9-4.1-9-9-9s-9,4.1-9,9s4.1,9,9,9S1516,181.9,1516,177z M1499.1,177c0-4.4,3.5-7.9,7.9-7.9
					s7.9,3.5,7.9,7.9s-3.5,7.9-7.9,7.9S1499.1,181.4,1499.1,177z"/>
			</g>
		</g>
		<g>
			<line class="st26" x1="1502.5" y1="181.5" x2="1510.4" y2="173.6"/>
			<rect x="1501.2" y="178.1" class="st4" width="1.4" height="3.4"/>
			<rect x="1502.5" y="181.5" class="st4" width="3.4" height="1.6"/>
			<line class="st27" x1="1503.6" y1="178.1" x2="1505.9" y2="180.4"/>
		</g>
	</g>
	<rect x="1098" y="172" class="st11" width="200" height="11.3"/>
	<rect x="1098" y="221" class="st28" width="146" height="11"/>
	<g id="arrow_dropdown_4_">
		<g>
			<g>
				<path class="st4" d="M1522.6,177c0-4.7,3.7-8.4,8.4-8.4s8.4,3.7,8.4,8.4s-3.7,8.4-8.4,8.4S1522.6,181.7,1522.6,177z"/>
			</g>
		</g>
		<g>
			<g>
				<path class="st11" d="M1540,177c0-4.9-4.1-9-9-9s-9,4.1-9,9s4.1,9,9,9S1540,181.9,1540,177z M1523.1,177c0-4.4,3.5-7.9,7.9-7.9
					s7.9,3.5,7.9,7.9s-3.5,7.9-7.9,7.9S1523.1,181.4,1523.1,177z"/>
			</g>
		</g>
		<g>
			<line class="st29" x1="1527.6" y1="180.4" x2="1534.4" y2="173.6"/>
			<line class="st29" x1="1534.4" y1="180.4" x2="1527.6" y2="173.6"/>
		</g>
	</g>
	<g id="arrow_dropdown_1_">
	</g>
	<g>
		<rect x="1109" y="256" class="st38" width="431" height="144"/>
		<rect x="1145" y="382" class="st32" width="36" height="18"/>
		<rect x="1199" y="364" class="st32" width="36" height="36"/>
		<rect x="1253" y="382" class="st32" width="36" height="18"/>
		<rect x="1307" y="304" class="st32" width="36" height="96"/>
		<rect x="1415" y="280" class="st32" width="36" height="120"/>
		<rect x="1361" y="340" class="st32" width="36" height="60"/>
		<rect x="1469" y="340" class="st32" width="36" height="60"/>
	</g>
	<rect x="1093" y="256" class="st11" width="10" height="9"/>
	<rect x="1093" y="304" class="st11" width="10" height="9"/>
	<rect x="1093" y="352" class="st11" width="10" height="9"/>
</g>
<g>
	<g>
		<rect x="545.5" y="508.5" class="st4" width="492" height="301"/>
		<path class="st6" d="M1037,509v300H546V509H1037 M1038,508H545v302h493V508L1038,508z"/>
	</g>
	<line class="st19" x1="546" y1="554" x2="1038" y2="553"/>
	<g>
		<g>
			<g>
				<path class="st22" d="M990,530c0-5-4-9-9-9s-9,4-9,9s4,9,9,9S990,535,990,530z M973.1,530c0-4.4,3.5-7.9,7.9-7.9
					s7.9,3.5,7.9,7.9s-3.5,7.9-7.9,7.9S973.1,534.4,973.1,530z"/>
			</g>
		</g>
		<g>
			<line class="st26" x1="976.5" y1="534.5" x2="984.4" y2="526.6"/>
			<rect x="975.2" y="531.1" class="st4" width="1.4" height="3.4"/>
			<rect x="976.5" y="534.5" class="st4" width="3.4" height="1.6"/>
			<line class="st27" x1="977.6" y1="531.1" x2="979.9" y2="533.4"/>
		</g>
	</g>
	<rect x="572" y="525" class="st11" width="99" height="11.3"/>
	<rect x="572" y="746" class="st37" width="123" height="9"/>
	<rect x="572" y="765" class="st37" width="99" height="9"/>
	<rect x="825" y="746" class="st37" width="99" height="9"/>
	<rect x="825" y="765" class="st37" width="127" height="9"/>
	<rect x="572" y="574" class="st28" width="146" height="11"/>
	<g id="arrow_dropdown_9_">
		<g>
			<g>
				<path class="st4" d="M996.6,530c0-4.7,3.7-8.4,8.4-8.4s8.4,3.7,8.4,8.4s-3.7,8.4-8.4,8.4S996.6,534.7,996.6,530z"/>
			</g>
		</g>
		<g>
			<g>
				<path class="st11" d="M1014,530c0-5-4-9-9-9s-9,4-9,9s4,9,9,9S1014,535,1014,530z M997.1,530c0-4.4,3.5-7.9,7.9-7.9
					s7.9,3.5,7.9,7.9s-3.5,7.9-7.9,7.9S997.1,534.4,997.1,530z"/>
			</g>
		</g>
		<g>
			<line class="st29" x1="1001.6" y1="533.4" x2="1008.4" y2="526.6"/>
			<line class="st29" x1="1008.4" y1="533.4" x2="1001.6" y2="526.6"/>
		</g>
	</g>
	<g id="arrow_dropdown_8_">
	</g>
	<g>
		<g>
			<g>
				<g>
					<g>
						<g>
							<path class="st38" d="M658,671.1L641.5,722c-28.1-9.1-43.5-39.3-34.4-67.5c7.3-22.5,27.3-37,50.9-37V671.1z"/>
						</g>
					</g>
					<g>
						<g>
							<path class="st4" d="M658,671.1l16.5,50.9c-11.2,3.7-21.8,3.7-33.1,0L658,671.1z"/>
						</g>
					</g>
					<g>
						<g>
							<path class="st38" d="M658,671.1v-53.5c29.6,0,53.5,24,53.5,53.5c0,23.7-14.5,43.6-37,50.9L658,671.1z"/>
						</g>
					</g>
				</g>
			</g>
			<g>
				<g>
					<g>
						<g>
							<path class="st32" d="M658.1,670.8l-42.2-21.5c8.3-16.3,23.9-25.9,42.2-25.9V670.8z"/>
						</g>
					</g>
					<g>
						<g>
							<path class="st34" d="M658.1,670.8l-38.3,27.8c-10.8-14.8-12.2-33-3.9-49.3L658.1,670.8z"/>
						</g>
					</g>
					<g>
						<g>
							<path class="st39" d="M658.1,670.8l-14.6,45c-9.9-3.2-17.5-8.7-23.7-17.2L658.1,670.8z"/>
						</g>
					</g>
					<g>
						<g>
							<path class="st4" d="M658.1,670.8l14.6,45c-9.9,3.2-19.3,3.2-29.3,0L658.1,670.8z"/>
						</g>
					</g>
					<g>
						<g>
							<path class="st39" d="M658.1,670.8l38.3,27.8c-6.1,8.5-13.7,14-23.7,17.2L658.1,670.8z"/>
						</g>
					</g>
					<g>
						<g>
							<path class="st34" d="M658.1,670.8l42.2-21.5c8.3,16.3,6.9,34.5-3.9,49.3L658.1,670.8z"/>
						</g>
					</g>
					<g>
						<g>
							<path class="st32" d="M658.1,670.8v-47.4c18.3,0,33.9,9.5,42.2,25.9L658.1,670.8z"/>
						</g>
					</g>
				</g>
			</g>
		</g>
		<g>
			<circle class="st40" cx="658" cy="671" r="4"/>
			<g>
				<polygon class="st40" points="660,670 656.2,670.2 653.8,617.4 				"/>
			</g>
		</g>
	</g>
	<g>
		<g>
			<g>
				<g>
					<g>
						<g>
							<path class="st38" d="M897,671.1L880.5,722c-28.1-9.1-43.5-39.3-34.4-67.5c7.3-22.5,27.3-37,50.9-37V671.1z"/>
						</g>
					</g>
					<g>
						<g>
							<path class="st4" d="M897,671.1l16.5,50.9c-11.2,3.7-21.8,3.7-33.1,0L897,671.1z"/>
						</g>
					</g>
					<g>
						<g>
							<path class="st38" d="M897,671.1v-53.5c29.6,0,53.5,24,53.5,53.5c0,23.7-14.5,43.6-37,50.9L897,671.1z"/>
						</g>
					</g>
				</g>
			</g>
			<g>
				<g>
					<g>
						<g>
							<path class="st32" d="M897.1,670.8l-42.2-21.5c8.3-16.3,23.9-25.9,42.2-25.9V670.8z"/>
						</g>
					</g>
					<g>
						<g>
							<path class="st34" d="M897.1,670.8l-38.3,27.8c-10.8-14.8-12.2-33-3.9-49.3L897.1,670.8z"/>
						</g>
					</g>
					<g>
						<g>
							<path class="st39" d="M897.1,670.8l-14.6,45c-9.9-3.2-17.5-8.7-23.7-17.2L897.1,670.8z"/>
						</g>
					</g>
					<g>
						<g>
							<path class="st4" d="M897.1,670.8l14.6,45c-9.9,3.2-19.3,3.2-29.3,0L897.1,670.8z"/>
						</g>
					</g>
					<g>
						<g>
							<path class="st39" d="M897.1,670.8l38.3,27.8c-6.1,8.5-13.7,14-23.7,17.2L897.1,670.8z"/>
						</g>
					</g>
					<g>
						<g>
							<path class="st34" d="M897.1,670.8l42.2-21.5c8.3,16.3,6.9,34.5-3.9,49.3L897.1,670.8z"/>
						</g>
					</g>
					<g>
						<g>
							<path class="st32" d="M897.1,670.8v-47.4c18.3,0,33.9,9.5,42.2,25.9L897.1,670.8z"/>
						</g>
					</g>
				</g>
			</g>
		</g>
		<g>
			<circle class="st40" cx="897" cy="671" r="4"/>
			<g>
				<polygon class="st40" points="896.5,668.6 895.9,672.3 843.7,663.8 				"/>
			</g>
		</g>
	</g>
</g>
<g>
	<g>
		<rect x="1071.5" y="466.5" class="st4" width="492" height="315"/>
		<path class="st6" d="M1563,467v314h-491V467H1563 M1564,466h-493v316h493V466L1564,466z"/>
	</g>
	<line class="st19" x1="1071" y1="512" x2="1564" y2="511"/>
	<g>
		<g>
			<g>
				<path class="st22" d="M1515,488c0-5-4.1-9-9-9s-9,4-9,9s4.1,9,9,9S1515,493,1515,488z M1498.1,488c0-4.4,3.5-7.9,7.9-7.9
					s7.9,3.5,7.9,7.9s-3.5,7.9-7.9,7.9S1498.1,492.4,1498.1,488z"/>
			</g>
		</g>
		<g>
			<line class="st26" x1="1501.5" y1="492.5" x2="1509.4" y2="484.6"/>
			<rect x="1500.2" y="489.1" class="st4" width="1.4" height="3.4"/>
			<rect x="1501.5" y="492.5" class="st4" width="3.4" height="1.6"/>
			<line class="st27" x1="1502.6" y1="489.1" x2="1504.9" y2="491.4"/>
		</g>
	</g>
	<rect x="1097" y="483" class="st11" width="99" height="11.3"/>
	<rect x="1097" y="532" class="st28" width="146" height="11"/>
	<g id="arrow_dropdown_6_">
		<g>
			<g>
				<path class="st4" d="M1521.6,488c0-4.7,3.7-8.4,8.4-8.4s8.4,3.7,8.4,8.4s-3.7,8.4-8.4,8.4S1521.6,492.7,1521.6,488z"/>
			</g>
		</g>
		<g>
			<g>
				<path class="st11" d="M1539,488c0-5-4.1-9-9-9s-9,4-9,9s4.1,9,9,9S1539,493,1539,488z M1522.1,488c0-4.4,3.5-7.9,7.9-7.9
					s7.9,3.5,7.9,7.9s-3.5,7.9-7.9,7.9S1522.1,492.4,1522.1,488z"/>
			</g>
		</g>
		<g>
			<line class="st29" x1="1526.6" y1="491.4" x2="1533.4" y2="484.6"/>
			<line class="st29" x1="1533.4" y1="491.4" x2="1526.6" y2="484.6"/>
		</g>
	</g>
	<g id="arrow_dropdown_5_">
	</g>
	<circle class="st33" cx="1313" cy="626" r="8"/>
	<circle class="st41" cx="1313" cy="652" r="8"/>
	<circle class="st34" cx="1313" cy="678" r="8"/>
	<circle class="st32" cx="1426" cy="626" r="8"/>
	<circle class="st36" cx="1426" cy="652" r="8"/>
	<rect x="1327" y="621" class="st37" width="70" height="9"/>
	<rect x="1327" y="647" class="st37" width="54" height="9"/>
	<rect x="1327" y="674" class="st37" width="70" height="9"/>
	<rect x="1440" y="622" class="st37" width="54" height="9"/>
	<rect x="1441" y="648" class="st37" width="70" height="9"/>
	<g>
		<g>
			<g>
				<g>
					<path class="st31" d="M1182.4,663.1l-15.9-81.8c5.4-1.1,10.4-1.5,15.9-1.5V663.1z"/>
				</g>
			</g>
			<g>
				<g>
					<path class="st32" d="M1182.4,663.1l-40.4-72.9c8.1-4.5,15.5-7.2,24.5-8.9L1182.4,663.1z"/>
				</g>
			</g>
			<g>
				<g>
					<path class="st34" d="M1182.4,663.1l-79.3-25.8c6.8-21,19.5-36.4,38.9-47.1L1182.4,663.1z"/>
				</g>
			</g>
			<g>
				<g>
					<path class="st41" d="M1182.4,663.1l-49,67.4c-29.8-21.6-41.7-58.2-30.3-93.2L1182.4,663.1z"/>
				</g>
			</g>
			<g>
				<g>
					<path class="st33" d="M1182.4,663.1v-83.4c46,0,83.4,37.3,83.4,83.4s-37.3,83.4-83.4,83.4c-18.4,0-34.1-5.1-49-15.9
						L1182.4,663.1z"/>
				</g>
			</g>
		</g>
	</g>
</g>
<path class="st28" d="M129,24c-0.4,0-0.7,0-1,0.1c-0.4-4.6-4.3-8.1-9-8.1c-5,0-9,4-9,9s4,9,9,9c2.2,0,4.3-0.8,5.9-2.2
	c0.9,1.3,2.4,2.2,4.1,2.2c2.8,0,5-2.2,5-5S131.8,24,129,24z M121.2,23.9c0.2,0.3,0.3,0.7,0.3,1.1c0,1.4-1.1,2.5-2.5,2.5
	s-2.5-1.1-2.5-2.5s1.1-2.5,2.5-2.5c0.4,0,0.8,0.1,1.1,0.3l3.8-3.8l1.1,1.1L121.2,23.9z M129,30.8c-1,0-1.8-0.8-1.8-1.8
	c0-0.2,0-0.4,0.1-0.6l-1.9-1.9l1.1-1.1l2,2c0.2,0,0.3-0.1,0.5-0.1c1,0,1.8,0.8,1.8,1.8S130,30.8,129,30.8z"/>
<g id="New_Symbol">
</g>
<path class="st28" d="M128,235c-0.4,0-0.7,0-1,0.1c-0.4-4.6-4.3-8.1-9-8.1c-5,0-9,4-9,9s4,9,9,9c2.2,0,4.3-0.8,5.9-2.2
	c0.9,1.3,2.4,2.2,4.1,2.2c2.8,0,5-2.2,5-5S130.8,235,128,235z M120.2,234.9c0.2,0.3,0.3,0.7,0.3,1.1c0,1.4-1.1,2.5-2.5,2.5
	s-2.5-1.1-2.5-2.5s1.1-2.5,2.5-2.5c0.4,0,0.8,0.1,1.1,0.3l3.8-3.8l1.1,1.1L120.2,234.9z M128,241.8c-1,0-1.8-0.8-1.8-1.8
	c0-0.2,0-0.4,0.1-0.6l-1.9-1.9l1.1-1.1l2,2c0.2,0,0.3-0.1,0.5-0.1c1,0,1.8,0.8,1.8,1.8S129,241.8,128,241.8z"/>
<path class="st28" d="M128,275c-0.4,0-0.7,0-1,0.1c-0.4-4.6-4.3-8.1-9-8.1c-5,0-9,4-9,9s4,9,9,9c2.2,0,4.3-0.8,5.9-2.2
	c0.9,1.3,2.4,2.2,4.1,2.2c2.8,0,5-2.2,5-5S130.8,275,128,275z M120.2,274.9c0.2,0.3,0.3,0.7,0.3,1.1c0,1.4-1.1,2.5-2.5,2.5
	s-2.5-1.1-2.5-2.5s1.1-2.5,2.5-2.5c0.4,0,0.8,0.1,1.1,0.3l3.8-3.8l1.1,1.1L120.2,274.9z M128,281.8c-1,0-1.8-0.8-1.8-1.8
	c0-0.2,0-0.4,0.1-0.6l-1.9-1.9l1.1-1.1l2,2c0.2,0,0.3-0.1,0.5-0.1c1,0,1.8,0.8,1.8,1.8S129,281.8,128,281.8z"/>
<path class="st28" d="M128,315c-0.4,0-0.7,0-1,0.1c-0.4-4.6-4.3-8.1-9-8.1c-5,0-9,4-9,9s4,9,9,9c2.2,0,4.3-0.8,5.9-2.2
	c0.9,1.3,2.4,2.2,4.1,2.2c2.8,0,5-2.2,5-5S130.8,315,128,315z M120.2,314.9c0.2,0.3,0.3,0.7,0.3,1.1c0,1.4-1.1,2.5-2.5,2.5
	s-2.5-1.1-2.5-2.5s1.1-2.5,2.5-2.5c0.4,0,0.8,0.1,1.1,0.3l3.8-3.8l1.1,1.1L120.2,314.9z M128,321.8c-1,0-1.8-0.8-1.8-1.8
	c0-0.2,0-0.4,0.1-0.6l-1.9-1.9l1.1-1.1l2,2c0.2,0,0.3-0.1,0.5-0.1c1,0,1.8,0.8,1.8,1.8S129,321.8,128,321.8z"/>
<g id="New_Symbol_1_">
</g>
<g>
	<path class="st28" d="M123.6,386h-2.7c0.1,0.3,0.1,0.4,0.1,0.6c0,1-1.2,1.9-2.6,1.9s-2.6-0.9-2.6-1.9c0-0.3,0-0.4,0.1-0.6h-2.7
		c-0.8,0-1.3,0.5-1.3,1.3v15.4c0,0.8,0.5,1.3,1.3,1.3h10.3c0.8,0,1.3-0.5,1.3-1.3v-15.4C124.9,386.5,124.3,386,123.6,386z"/>
</g>
<g>
	<path class="st42" d="M119,508.7c4.1,0,7.3,3.3,7.3,7.3s-3.3,7.3-7.3,7.3s-7.3-3.3-7.3-7.3S114.9,508.7,119,508.7 M119,507
		c-4.9,0-9,4-9,9s4.1,9,9,9s9-4,9-9S123.9,507,119,507L119,507z"/>
	<path class="st42" d="M122.9,512.1c-2.2-2.2-5.7-2.2-8,0s-2.2,5.7,0,8s5.7,2.2,8,0S125.2,514.2,122.9,512.1z M120.6,517.3l-1.2,1.2
		l-1.2-1.4l-1.2-1.2l1.2-1.2l3-3l1.2,1.2l-3.2,3L120.6,517.3z"/>
</g>
<path class="st43" d="M110.8,358.1c0.8-0.9,1.4-1.7,2.1-2.6c0.1-0.1,0.3-0.1,0.5-0.1c0.9,0,1.9,0,2.9,0c0.4,0,0.6-0.1,0.9-0.4
	c1.4-1.8,3-3.6,4.5-5.3c1.9-2.2,4.5-3.5,7.5-3.9c0.6-0.3,1.4-0.3,2.3-0.4c-0.1,0.8-0.1,1.6-0.3,2.2c-0.4,2.6-1.3,5.1-3.2,7
	c-1.3,1.3-2.7,2.5-4.1,3.8c-0.6,0.6-1.4,1.2-2.1,1.8c-0.1,0.1-0.3,0.4-0.3,0.6c0,1,0,1.9,0,3c0,0.4-0.1,0.6-0.4,0.8
	c-0.8,0.5-1.4,1.2-2.3,1.8c-0.1-0.6-0.3-1.3-0.4-1.8c-0.1-0.3-0.1-0.6-0.1-0.9c-0.1-0.5-0.3-0.5-0.8-0.4c-0.3,0.1-0.6,0.3-0.9,0.4
	c-0.3,0-0.5,0.1-0.6,0c-1-0.5-1.8-1.4-2.3-2.3c-0.1-0.1-0.1-0.5,0-0.8s0.3-0.6,0.4-0.9s0-0.5-0.4-0.6
	C112.7,358.5,111.8,358.3,110.8,358.1z M127,351.9c0-1.2-0.9-1.9-1.9-1.9s-1.9,0.9-1.9,1.9s0.9,1.9,1.9,1.9
	C126.1,353.9,127,353,127,351.9z"/>
<g>
	<path class="st44" d="M122.3,428h-4.9c-0.8,0-1.4,0.3-2,0.8l-6.4,7.1v6.6c0,0.8,0.5,1.3,1.3,1.3h18.4c0.8,0,1.3-0.5,1.3-1.3v-6.6
		l-5.8-7C123.7,428.4,123,428,122.3,428z M122.1,442.4h-6.6v-5.2h-2.6v5.2h-2.6v-6l5.9-6.4l5.9,6.4
		C122.1,436.4,122.1,442.4,122.1,442.4z M127.4,441.1h-2.6v-3.9h2.6V441.1z"/>
	<rect x="116.9" y="437.2" class="st44" width="2.6" height="3.9"/>
</g>
<g id="Problem_management_2_">
	<g>
		<rect x="111" y="482" class="st45" width="16" height="2"/>
		<g>
			<polygon class="st45" points="122.1,474 120,468 118,468 115.9,474 			"/>
			<polygon class="st45" points="122.5,475 115.5,475 113.4,481 124.6,481 			"/>
		</g>
	</g>
</g>
<rect x="103.7" y="50.5" class="st4" width="211.7" height="5.5"/>
<g>
	<path class="st37" d="M1598,2v896H2V2H1598 M1600,0H0v900h1600V0L1600,0z"/>
</g>
</svg>
